<svg xmlns="http://www.w3.org/2000/svg" viewBox="0 0 453.5 401.17"><defs><style>.cls-1{fill:#ffe5b6;}.cls-2{fill:#9fc6ff;}.cls-3{fill:#bbdaff;}.cls-4{fill:#d2ffd2;}.cls-5{fill:#ffedcf;}</style></defs><title>Blue Planet</title><g id="Layer_2" data-name="Layer 2"><g id="Layer_2-2" data-name="Layer 2"><path class="cls-1" d="M16.45,310.87A10,10,0,0,1,3.07,306.2l-.22-.45a13.25,13.25,0,0,1-.61-1.48,10,10,0,0,1,5-12.37q.37-.18.77-.33A10,10,0,0,1,20.89,297l.21.5A10,10,0,0,1,16.45,310.87Z"/><path class="cls-1" d="M12.07,301.84c-.15-.31-.28-.64-.41-1a5.25,5.25,0,0,0,.19.5Z"/><path class="cls-1" d="M16,309.88c-.23.11-.47.22-.72.32a10,10,0,0,1-12.87-5.43c-7.7-18.29,2.83-42.14,31.28-70.88a10,10,0,0,1,16.95,5.27,189.56,189.56,0,0,0,4.62,19.64,10,10,0,0,1-3.59,10.8c-25.19,18.92-29.55,27.25-30.27,29.15A10,10,0,0,1,16,309.88Z"/><path class="cls-1" d="M45.69,261.6a198.76,198.76,0,0,1-4.87-20.68c-23.94,24.19-35.23,45.57-29.17,60C9,293.62,21.8,279.54,45.69,261.6Z"/><path class="cls-1" d="M445.11,104.05A10,10,0,0,1,433,101.39c-1.6-.5-8.2-1.77-27.66,2.36A10,10,0,0,1,395,99.64C391.86,95,388.37,90.41,384.67,86a10,10,0,0,1,7.38-16.39c30-.92,49.37,6,57.45,20.64a10,10,0,0,1-3.71,13.47C445.57,103.82,445.34,103.94,445.11,104.05Z"/><path class="cls-1" d="M392.36,79.57q5.74,6.91,10.92,14.4C424,89.58,437.41,89.64,440.75,95,434.52,83.76,417.23,78.8,392.36,79.57Z"/><path class="cls-1" d="M444.74,103.16a10,10,0,0,1-13.34-4.58l-.26-.47a10,10,0,0,1,3.65-13.47q.36-.22.74-.4a10,10,0,0,1,12.82,3.69,13.12,13.12,0,0,1,.8,1.41l.22.45A10,10,0,0,1,444.74,103.16Z"/><path class="cls-1" d="M440.16,93.71a5.25,5.25,0,0,0-.28-.46c.17.3.34.6.49.91Z"/><path class="cls-2" d="M148.69,20l-.45.21C48.6,68.53,7,188.46,55.31,288.1S223.56,429.35,323.19,381l.45-.22C423,332.35,464.37,212.63,416.13,113.15S248.24-28,148.69,20Z"/><path class="cls-3" d="M342.26,76.06A279.23,279.23,0,0,1,432.33,240a200.77,200.77,0,0,0,3.53-51.39C429.26,78,334.31-6.23,223.77.36l-.5,0a201.42,201.42,0,0,0-38.16,6.08A279.13,279.13,0,0,1,342.26,76.06Z"/><path class="cls-4" d="M147.88,20.39"/><path class="cls-4" d="M147.88,20.39"/><path class="cls-1" d="M261.13,270c-57.43,27.85-114.75,47.83-161.41,56.26C48.85,335.44,16.1,329.83,5,310c-.22-.37-.42-.74-.6-1.12l-.22-.45a10,10,0,0,1,17.43-9.73c3.09.78,18.49,2.72,70.89-14.64,41.49-13.74,93.32-35.36,146-60.88s101.71-52.83,138.19-76.89c46.07-30.39,54.09-43.68,55.39-46.59a10,10,0,0,1,18.44-7.66l.22.45c.18.38.35.77.51,1.17,8.67,21-7.21,50.18-45.93,84.43C369.74,209.51,318.55,242.14,261.13,270Z"/><path class="cls-5" d="M430.49,152.82a199,199,0,0,0-12.92-36.87,297.14,297.14,0,0,1-24.93,19.43,278.37,278.37,0,0,1,19.47,36.49A240,240,0,0,0,430.49,152.82Z"/></g></g></svg>