<svg xmlns="http://www.w3.org/2000/svg" viewBox="0 0 660.39 430.76"><defs><style>.cls-1{fill:#ff6969;}.cls-2{fill:#f26666;}.cls-3{fill:#ff9c7d;}.cls-4{fill:#f28d79;}.cls-5{fill:#b79d70;}.cls-6{fill:#a88e69;}</style></defs><title>Meteor</title><g id="Layer_2" data-name="Layer 2"><g id="Layer_2-2" data-name="Layer 2"><path class="cls-1" d="M0,123.22s153,20.06,210.67,50.16c28.84,15,26.33,22.57,26.65,23.2-2.6,1.21-7.39,1.28-11.17,1.09a41.77,41.77,0,0,1-9.38-1.65C155,178.43,85.27,208.49,85.27,208.49,155.49,202.22,186.84,310.06,380,310.06l24.48-93.83L71,99.44C30.58,111.2,0,123.22,0,123.22Z"/><path class="cls-2" d="M262.08,41.71C137.94-12.21,121.64,1.58,121.64,1.58c62.7,17.56,122.89,85.27,122.89,85.27C207.53,66.14,129.08,82.52,71,99.44L404.43,216.23,425.1,137S386.23,95.63,262.08,41.71Z"/><path class="cls-3" d="M110.48,114.06"/><path class="cls-3" d="M196.74,29.78c-.38-.2-.74-.42-1.12-.61C195.62,29.17,195.94,29.35,196.74,29.78Z"/><path class="cls-3" d="M189.61,143.23c26.89,13.15,52.65,29,63.45,43.6,14.45,19.57,32.61,24.95,32.84,25.42-1.94.91-16.3,3.76-31.35-1.25C209,195.81,163,229.8,163,229.8,215.53,225.12,235.25,289,379.66,289l18.79-74.62Z"/><path class="cls-4" d="M410.05,168.36s-11.29-58.94-104.08-94c-81.27-30.75-104.33-42-109.23-44.53,50.74,26.72,81.64,92.35,81.64,92.35-42.85-24-149.65-7.75-167.75-5.26,10.24.52,45.41,10,79,26.36l208.84,71.19Z"/><path class="cls-5" d="M407,359.61l36.11-36.11c-30.71-30.71,16.54-53,34.76-34.76l22.27-22.27c-18.22-18.22,18.22-47.92,33.07-33.07l43.87-43.87c-22.61-22.61,35.77-35.77,35.77-35.77A162.27,162.27,0,0,0,383.38,383.23C359.76,359.61,381,333.62,407,359.61Z"/><path class="cls-5" d="M443.11,323.5,407,359.61C433,385.59,473.82,354.21,443.11,323.5Z"/><path class="cls-6" d="M612.86,153.75l-35.77,35.77c22.61,22.61-29,58.72-43.87,43.87l-33.07,33.07c18.22,18.22-4,40.5-22.27,22.27L443.11,323.5C473.82,354.21,433,385.59,407,359.61l-23.62,23.62A162.27,162.27,0,0,0,612.86,153.75Z"/><path class="cls-6" d="M500.14,266.47l33.07-33.07C518.37,218.54,481.92,248.24,500.14,266.47Z"/><path class="cls-6" d="M577.09,189.52l35.77-35.77S554.48,166.91,577.09,189.52Z"/><path class="cls-6" d="M383.38,383.23,407,359.61C381,333.62,359.76,359.61,383.38,383.23Z"/><path class="cls-6" d="M443.11,323.5l34.76-34.76C459.65,270.51,412.4,292.79,443.11,323.5Z"/><path class="cls-5" d="M577.09,189.52l-43.87,43.87C548.06,248.24,599.7,212.13,577.09,189.52Z"/><path class="cls-5" d="M500.14,266.47l-22.27,22.27C496.09,307,518.37,284.69,500.14,266.47Z"/></g></g></svg>