<svg xmlns="http://www.w3.org/2000/svg" viewBox="0 0 680 340"><defs><style>.a{fill:#b3b3b3;}.b{fill:#999;}.c{fill:#8c8c8c;}.d{fill:gray;}</style></defs><title>moonhalf</title><path class="a" d="M340,70V177c91,0,54,103,0,103v60H626.40112a15.95339,15.95339,0,0,1,23.19775,0H680C680,152.22314,527.77686,0,340,0,410,0,417,70,340,70Zm223,53a28.0004,28.0004,0,0,1,14.36133,52.03711h0l-.00073.00037c-.48511.29041-.98169.563-1.48511.82434q-.12506.06482-.25073.12842c-.48633.24622-.97937.48071-1.48145.69885-.02649.01147-.05237.02429-.07886.03577q-.81116.34937-1.64807.64746c-.07178.02563-.14478.04834-.2168.07336q-.70129.2439-1.41907.45044c-.12646.03662-.25293.07312-.38025.108-.51453.14063-1.03357.26978-1.55945.38135-.04028.00854-.07947.01929-.11963.02759-.56274.11694-1.13257.21362-1.70715.29614-.14331.02051-.288.03638-.43188.05481q-.66193.08459-1.33289.13806c-.16431.01306-.32825.02734-.49341.0376-.5813.03589-1.16553.0603-1.75586.0603a27.88488,27.88488,0,0,1-17.81055-6.3938,28.11034,28.11034,0,0,1-7.42834-9.467,27.81319,27.81319,0,0,1-2.43848-7.875A28.20842,28.20842,0,0,1,535,151q0-.72144.03625-1.43384c.01453-.28906.04187-.57471.06506-.86133.01489-.1825.02344-.36694.04175-.54858.03845-.38086.0896-.75781.14307-1.13379.01221-.085.01978-.17139.03271-.2561.06665-.4397.145-.87573.23193-1.30859.00378-.01855.00635-.0376.01013-.05627A28.00874,28.00874,0,0,1,563,123ZM473,282.5a32.47937,32.47937,0,0,1-15.83081,27.90015h.00024l-.0022.00122c-.56274.33679-1.13867.65308-1.72278.95618q-.14447.07507-.29.14856c-.56531.28613-1.13831.55884-1.72192.81238-.03.01306-.0592.02747-.08936.04041q-.94171.40576-1.91382.752c-.08264.02954-.16687.05566-.24988.08459q-.81519.28363-1.64966.52368c-.14624.04236-.292.08435-.43909.12463-.59875.16382-1.203.314-1.81519.44385-.04492.00952-.089.02148-.134.031-.65344.13574-1.31531.248-1.98254.34387-.1665.024-.33447.04236-.50171.06372q-.76776.09814-1.54614.16016c-.19092.01526-.38123.03162-.573.04358-.67468.04175-1.35291.07007-2.03809.07007A32.5,32.5,0,0,1,408,282.5q0-.83716.042-1.66382c.01636-.32178.04712-.63965.07251-.95874.01819-.2262.02905-.45435.05176-.6792.04492-.44531.10461-.886.16724-1.32581.01367-.09485.022-.19141.03638-.286.07617-.50232.16614-1,.26514-1.49463.006-.03.01-.06079.01611-.09082A32.50292,32.50292,0,0,1,473,282.5ZM425,102a20.96867,20.96867,0,0,1-10.29248,18.0415c.02087-.00513.04248-.00854.06348-.01367-.15454.09241-.316.17383-.473.26245-.16418.09277-.32727.186-.49426.27441-.50476.26721-1.0188.5188-1.54687.74512-.11694.05017-.23779.09192-.356.13989q-.67511.275-1.37292.50256c-.17.05554-.33936.111-.51111.16223-.57275.17139-1.15234.32593-1.74438.44849-.06677.01379-.13538.022-.20239.03516-.54712.10767-1.10278.1897-1.66431.25391-.16553.019-.33081.03662-.49756.05164-.62939.05688-1.26392.09631-1.9082.09631a21.00967,21.00967,0,0,1-20.89215-23.13574c.03821-.37793.11121-.74463.16919-1.11646.04968-.31812.082-.64209.14581-.95532.09314-.45825.22186-.90259.34436-1.34937.05908-.21533.10132-.43726.16705-.64978.14227-.46033.318-.905.49042-1.3512.07062-.18262.12524-.373.20074-.5531l-.00043.00586A21.00129,21.00129,0,0,1,425,102Z"/><path class="a" d="M340,177V70C263,70,249,177,340,177Z"/><path class="b" d="M45.42474,339.69055c.00592-.02991.01007-.06067.01617-.0907A22.00048,22.00048,0,0,1,88.63049,340H315.48181C287.87061,323.73462,296.041,280,340,280V177c-91,0-77-107,0-107V0C152.22314,0,0,152.22314,0,340H45.36951C45.38843,339.897,45.40442,339.793,45.42474,339.69055ZM206,160a48.00057,48.00057,0,0,1,24.61932,89.2063h.00006q-.70377.42151-1.42352.81848c-.30341.16785-.61078.32874-.91815.49011q-.42865.22522-.8623.44165c-.30157.15063-.60229.30225-.90747.44653q-.77115.3653-1.55707.704c-.28326.12195-.57013.23645-.8562.35315q-.52606.21442-1.05792.417c-.27942.1062-.55829.21313-.84021.31421q-.85684.30743-1.72784.58459c-.233.07361-.46893.14026-.70349.21033q-.66211.1983-1.33173.37817c-.2431.06494-.48578.13062-.73041.19189-.63269.15881-1.26923.30786-1.91162.44116-.16248.03369-.3269.06165-.49.09375q-.81345.16-1.63666.29224c-.21075.03394-.42145.06763-.63312.09863-.68738.1012-1.37805.19214-2.07458.26367-.08142.0083-.16388.01318-.24542.02124-.643.06274-1.29034.11035-1.94055.14746q-.28867.01648-.57782.03c-.72754.03271-1.45764.05542-2.1933.05542a48,48,0,0,1-48-48q0-1.23578.06207-2.45654c.02423-.481.07007-.95618.10834-1.43335.02643-.32861.042-.66016.075-.98682.06586-.65259.15356-1.29834.2453-1.943.02069-.14514.03363-.29285.0556-.4375.11322-.74646.2467-1.48621.39392-2.22083.008-.03979.01337-.08032.02142-.12A48.015,48.015,0,0,1,206,160Z"/><path class="b" d="M340,0V70C417,70,410,0,340,0Z"/><path class="b" d="M340,177V280C394,280,431,177,340,177Z"/><path class="a" d="M340,280c-43.959,0-52.12939,43.73462-24.51819,60H340Z"/><path class="b" d="M566.58215,178.764q-.66174.08478-1.33289.13806Q565.92035,178.84863,566.58215,178.764Z"/><path class="b" d="M570.40027,178.00415c-.5144.14087-1.03381.26953-1.55945.38135C569.3667,178.27393,569.88574,178.14478,570.40027,178.00415Z"/><path class="b" d="M568.72119,178.41309c-.56274.11719-1.13281.21338-1.70715.29614C567.58862,178.62671,568.15845,178.53,568.72119,178.41309Z"/><path class="b" d="M535.31885,146.76636c.06677-.4397.145-.87573.23193-1.30859C535.46387,145.89063,535.3855,146.32666,535.31885,146.76636Z"/><path class="b" d="M564.75586,178.9397c-.58118.036-1.16553.0603-1.75586.0603C563.59033,179,564.17456,178.97559,564.75586,178.9397Z"/><path class="b" d="M535.03625,149.56616c.01465-.28906.04187-.57459.06506-.86133C535.07813,148.99146,535.05078,149.2771,535.03625,149.56616Z"/><path class="b" d="M535.14307,148.15625c.03857-.38086.0896-.75781.14307-1.13379C535.23267,147.39844,535.18152,147.77539,535.14307,148.15625Z"/><path class="b" d="M575.62476,175.99023c-.48621.24634-.97949.48059-1.48145.69885C574.64539,176.47095,575.13843,176.23645,575.62476,175.99023Z"/><path class="b" d="M574.06445,176.72485q-.811.34937-1.64807.64746Q573.253,177.07349,574.06445,176.72485Z"/><path class="b" d="M577.3606,175.03748c-.485.29041-.98169.56287-1.48511.82434C576.37891,175.60046,576.87549,175.32788,577.3606,175.03748Z"/><path class="b" d="M572.19958,177.44568q-.70111.24408-1.41907.45044Q571.49829,177.68884,572.19958,177.44568Z"/><path class="b" d="M536.07143,143.23214a33.66892,33.66892,0,0,0,41.8028,32.66343,29.0013,29.0013,0,1,0-43.29329-30.694,28.81981,28.81981,0,0,1,1.66369-5.40235A34.03208,34.03208,0,0,0,536.07143,143.23214Z"/><path class="c" d="M541.3938,168.81055a28.17732,28.17732,0,0,0,3.79565,3.79565A28.17732,28.17732,0,0,1,541.3938,168.81055Z"/><path class="c" d="M535.10132,148.70483c.01489-.18262.02344-.36694.04175-.54858C535.12476,148.33789,535.11621,148.52234,535.10132,148.70483Z"/><path class="c" d="M535.56091,145.40149c-.00378.01868-.00635.03772-.01013.05627C535.55457,145.43921,535.55713,145.42017,535.56091,145.40149Z"/><path class="c" d="M535.28613,147.02246c.01221-.085.01978-.17139.03271-.2561C535.30591,146.85107,535.29834,146.9375,535.28613,147.02246Z"/><path class="c" d="M568.84082,178.3855c-.04016.00854-.07947.01929-.11963.02759C568.76135,178.40479,568.80054,178.394,568.84082,178.3855Z"/><path class="c" d="M572.41638,177.37231c-.07166.02563-.1449.04834-.2168.07336C572.27161,177.42065,572.3446,177.39795,572.41638,177.37231Z"/><path class="c" d="M570.78052,177.89612c-.12646.0365-.25293.07324-.38025.108C570.52759,177.96924,570.65405,177.93274,570.78052,177.89612Z"/><path class="c" d="M535,151q0-.72144.03625-1.43384Q535.00018,150.27844,535,151Z"/><polygon class="c" points="577.361 175.037 577.361 175.037 577.361 175.037 577.361 175.037"/><path class="c" d="M574.14331,176.68909c-.02661.0116-.05237.02429-.07886.03577C574.09094,176.71338,574.11682,176.70056,574.14331,176.68909Z"/><path class="c" d="M541.3938,168.81055a28.02269,28.02269,0,0,1-3.63269-5.67139A28.02269,28.02269,0,0,0,541.3938,168.81055Z"/><path class="c" d="M535.88159,157.99756a27.83187,27.83187,0,0,1-.559-2.7334A27.83187,27.83187,0,0,0,535.88159,157.99756Z"/><path class="c" d="M567.014,178.70923c-.14319.02051-.288.03638-.43188.05481C566.72607,178.74561,566.87073,178.72974,567.014,178.70923Z"/><path class="c" d="M565.24927,178.9021c-.16431.01306-.32837.02734-.49341.0376C564.921,178.92944,565.085,178.91516,565.24927,178.9021Z"/><path class="c" d="M575.87549,175.86182q-.12506.06482-.25073.12842Q575.75055,175.92651,575.87549,175.86182Z"/><path class="c" d="M534.33024,146.61516c-.0134.08774-.02124.17725-.03388.26525-.05538.3894-.10822.77982-.14818,1.17428-.019.18813-.02781.379-.04324.56818-.024.297-.05222.5927-.06739.89209q-.03736.73772-.03755,1.485a29.21586,29.21586,0,0,0,.33415,4.41645,28.88294,28.88294,0,0,0,6.288,14.03019,29.18365,29.18365,0,0,0,3.93121,3.93121A28.88077,28.88077,0,0,0,563,180c.61142,0,1.21664-.02516,1.81857-.06246.17093-.01062.34086-.02541.511-.03894q.695-.05538,1.38049-.143c.14906-.01909.299-.03553.44731-.05677.59485-.08572,1.18528-.18535,1.76812-.30672.0416-.0086.08231-.01972.1239-.02857.54441-.11581,1.08237-.24907,1.61514-.395.13187-.036.26285-.07409.39383-.11189q.743-.21487,1.46975-.46653c.07447-.02592.15033-.04943.22454-.076q.86611-.30969,1.70693-.67058c.02744-.01188.05411-.025.08167-.037.51988-.22606,1.03078-.46868,1.53435-.72381q.1301-.066.25969-.133c.5214-.27081,1.03584-.553,1.53815-.85378l.00076-.00038a33.67936,33.67936,0,0,1-41.6296-36.09639,28.81981,28.81981,0,0,0-1.66369,5.40235c-.00392.01934-.00657.03907-.01049.05828C534.48043,145.70815,534.39939,146.15976,534.33024,146.61516Z"/><path class="b" d="M447.14148,314.3186c-.65344.13586-1.31531.24792-1.98254.34387C445.82617,314.56665,446.488,314.45435,447.14148,314.3186Z"/><path class="b" d="M451.17944,313.19543q-.81482.284-1.64966.52368Q450.364,313.47833,451.17944,313.19543Z"/><path class="b" d="M408.16626,279.19824c.04492-.44531.10449-.886.16724-1.32581C408.27087,278.31226,408.21118,278.75293,408.16626,279.19824Z"/><path class="b" d="M449.0907,313.84375c-.59863.16406-1.20325.31384-1.81519.44385C447.8877,314.15771,448.49194,314.00757,449.0907,313.84375Z"/><path class="b" d="M444.65723,314.7262q-.76758.09833-1.54614.16016Q443.88965,314.82428,444.65723,314.7262Z"/><path class="b" d="M442.53809,314.92993c-.67456.04187-1.353.07007-2.03809.07007C441.18518,315,441.8634,314.97168,442.53809,314.92993Z"/><path class="b" d="M408.042,280.83618c.01636-.32178.04712-.63965.07251-.95874C408.08911,280.19653,408.05835,280.5144,408.042,280.83618Z"/><path class="b" d="M455.15442,311.5061c-.56519.28613-1.13843.55872-1.72192.81238C454.01611,312.06494,454.58911,311.79224,455.15442,311.5061Z"/><path class="b" d="M406.69119,275.601a34.27145,34.27145,0,0,1,1.97924-6.42625,40.47092,40.47092,0,0,0-.20617,4.08418A40.05409,40.05409,0,0,0,458.195,312.11708a34.50149,34.50149,0,1,0-51.50379-36.516Z"/><path class="b" d="M453.34314,312.35889q-.94171.40576-1.91382.752Q452.4007,312.764,453.34314,312.35889Z"/><path class="b" d="M408.36987,277.58643c.07629-.5022.166-1.00012.26514-1.49463C408.536,276.58643,408.446,277.08411,408.36987,277.58643Z"/><path class="b" d="M457.16724,310.40137c-.56274.33667-1.13879.65308-1.72278.95618C456.02856,311.05444,456.60449,310.73816,457.16724,310.40137Z"/><path class="c" d="M408,282.5q0-.83716.042-1.66382Q408.00024,281.66272,408,282.5Z"/><path class="c" d="M408.1145,279.87744c.01807-.2262.02905-.45435.05176-.6792C408.14355,279.4231,408.13269,279.65125,408.1145,279.87744Z"/><path class="c" d="M408.635,276.0918c.006-.03.01-.06079.01611-.09082C408.645,276.031,408.641,276.06177,408.635,276.0918Z"/><path class="c" d="M408.3335,277.87244c.01367-.09485.022-.19128.03638-.286C408.35547,277.681,408.34717,277.77759,408.3335,277.87244Z"/><path class="c" d="M451.42932,313.11084c-.08264.02954-.16687.05566-.24988.08459C451.26245,313.1665,451.34668,313.14038,451.42932,313.11084Z"/><path class="c" d="M453.4325,312.31848c-.03.01306-.0592.02747-.08936.04041C453.37329,312.34595,453.40247,312.33154,453.4325,312.31848Z"/><path class="c" d="M455.44446,311.35754q-.14447.07489-.29.14856Q455.3,311.4325,455.44446,311.35754Z"/><polygon class="c" points="457.169 310.4 457.169 310.4 457.167 310.401 457.169 310.4"/><path class="c" d="M443.11108,314.88635c-.1908.01526-.38135.03174-.573.04358C442.72986,314.918,442.92017,314.90161,443.11108,314.88635Z"/><path class="c" d="M445.15894,314.66248c-.16638.0238-.33447.04236-.50171.06372C444.82446,314.70483,444.99243,314.68652,445.15894,314.66248Z"/><path class="c" d="M447.27551,314.2876c-.045.00952-.089.02161-.134.031C447.18652,314.30908,447.23059,314.29712,447.27551,314.2876Z"/><path class="c" d="M449.52979,313.71912c-.14624.04224-.29211.08459-.43909.12463C449.23779,313.80347,449.38354,313.76147,449.52979,313.71912Z"/><path class="c" d="M408.46427,273.259a40.47092,40.47092,0,0,1,.20617-4.08418,34.27145,34.27145,0,0,0-1.97924,6.42625c-.00648.03188-.01076.06453-.0171.09641-.10522.52494-.20046,1.0535-.28145,1.58661-.01529.10056-.0241.20293-.03862.30361-.06661.46689-.12984.93468-.17753,1.40739-.0241.23869-.03576.48088-.05494.721-.027.33873-.05961.67616-.077,1.01774q-.04412.8776-.04458,1.76621A34.5,34.5,0,0,0,440.5,317c.72722,0,1.44743-.02993,2.16351-.07438.20344-.01257.40572-.03006.60826-.04626q.82628-.06589,1.64129-.17c.17753-.02268.356-.04237.53258-.06764.7083-.10185,1.41089-.22081,2.10455-.365.04782-.01.09447-.02281.14228-.03291.6496-.138,1.29142-.297,1.92689-.47116.156-.0425.31087-.08747.46611-.1323q.88518-.256,1.75118-.55591c.08812-.03071.17753-.05844.26525-.0898q1.03076-.36853,2.03159-.79823c.032-.01374.063-.029.09485-.04289.6194-.26927,1.22792-.55863,1.82789-.86237q.15433-.07814.30789-.1577c.61992-.32175,1.23142-.65763,1.8288-1.015l.00207-.0013A40.05409,40.05409,0,0,1,408.46427,273.259Z"/><path class="b" d="M406.40576,122.85205c-.16528.019-.33105.03662-.49756.05164C406.075,122.88867,406.24023,122.87109,406.40576,122.85205Z"/><path class="b" d="M382.77976,93.123a26.973,26.973,0,0,0-.1369,2.7163,26.69484,26.69484,0,0,0,33.08443,25.92046A22.99043,22.99043,0,1,0,382.77976,93.123Z"/><path class="b" d="M408.27246,122.563c-.06665.01392-.1355.022-.20239.03516C408.13709,122.585,408.20569,122.57678,408.27246,122.563Z"/><path class="b" d="M383.42285,97.79248c.09332-.45813.22174-.90259.34436-1.34937C383.64471,96.88989,383.516,97.33423,383.42285,97.79248Z"/><path class="b" d="M410.528,121.95227c-.1698.05554-.33948.111-.51111.16223C410.1886,122.06323,410.35791,122.00781,410.528,121.95227Z"/><path class="b" d="M383.93427,95.79333c.14233-.46021.318-.90515.49042-1.3512C384.25226,94.88831,384.07654,95.333,383.93427,95.79333Z"/><path class="b" d="M383.10785,99.86426c.03821-.37793.11114-.74463.16919-1.11646C383.21906,99.11963,383.14606,99.48633,383.10785,99.86426Z"/><path class="b" d="M412.25684,121.30981c-.11694.05-.238.092-.356.13989C412.019,121.40173,412.13989,121.36,412.25684,121.30981Z"/><path class="b" d="M414.298,120.29028c-.16406.09265-.32751.186-.49426.27441C413.9707,120.47632,414.13379,120.38306,414.298,120.29028Z"/><path class="c" d="M410.01685,122.1145c-.57275.171-1.15234.32617-1.74438.44849C408.8645,122.44043,409.44409,122.28589,410.01685,122.1145Z"/><path class="c" d="M383.277,98.7478c.04962-.31824.082-.64209.14581-.95532C383.359,98.10571,383.32672,98.42969,383.277,98.7478Z"/><path class="c" d="M414.771,120.02783c-.021.00513-.0426.00854-.06348.01367-.13745.08179-.27026.17017-.40955.24878C414.455,120.20166,414.61646,120.12024,414.771,120.02783Z"/><path class="c" d="M384.62543,93.889c-.0755.18005-.13013.37048-.20074.5531.06989-.18091.12555-.3689.20032-.54724Z"/><path class="c" d="M383.76721,96.44312c.059-.21533.10144-.43726.16705-.64978C383.86853,96.00586,383.82629,96.22778,383.76721,96.44312Z"/><path class="c" d="M408.07007,122.59814c-.54712.10742-1.10278.18994-1.66431.25391C406.96729,122.78784,407.52295,122.70581,408.07007,122.59814Z"/><path class="c" d="M413.80371,120.5647c-.50476.26709-1.0188.519-1.54687.74512C412.78491,121.0835,413.299,120.83191,413.80371,120.5647Z"/><path class="c" d="M411.90088,121.44971q-.67511.27466-1.37292.50256Q411.2254,121.72394,411.90088,121.44971Z"/><path class="c" d="M383,102a21.25264,21.25264,0,0,1,.10785-2.13574A21.19687,21.19687,0,0,0,383,102Z"/><path class="c" d="M405.9082,122.90369c-.62939.05676-1.26392.09631-1.9082.09631C404.64429,123,405.27881,122.96057,405.9082,122.90369Z"/><path class="c" d="M382.64286,95.83929a26.973,26.973,0,0,1,.1369-2.7163c-.08189.19533-.14285.40122-.2194.59936-.18885.48853-.38123.97585-.53712,1.47988-.07186.23276-.11832.47582-.183.71166-.1343.48933-.27495.97611-.37716,1.47788-.06986.34306-.10535.69776-.1597,1.04631-.06357.40724-.14346.80886-.1853,1.22278A23.27668,23.27668,0,0,0,381,102a23.00007,23.00007,0,0,0,23,23c.70565,0,1.4006-.04332,2.08994-.10549.18236-.01644.36392-.0357.54495-.05655.615-.07006,1.22359-.16044,1.82281-.27809.07327-.01444.14867-.02326.22167-.0385.64843-.134,1.28321-.30389,1.91052-.4912.188-.05615.37381-.11685.55979-.17768q.76387-.24988,1.50368-.55043c.12915-.05241.26178-.0984.38986-.15322.57837-.24761,1.14136-.52355,1.6942-.81608.18263-.0968.36165-.19907.54134-.30055.15255-.0861.298-.1829.44855-.27247a26.69484,26.69484,0,0,1-33.08443-25.92046Z"/><path class="c" d="M208.77112,255.91455q-.28857.01648-.57782.03Q208.48279,255.9314,208.77112,255.91455Z"/><path class="c" d="M220.46869,253.776c-.233.07361-.46906.14026-.70349.21033C219.99976,253.91626,220.23566,253.84961,220.46869,253.776Z"/><path class="c" d="M158.06207,205.54346c.02435-.481.06995-.95618.10834-1.43335C158.13214,204.58728,158.0863,205.0625,158.06207,205.54346Z"/><path class="c" d="M158.24542,203.12329c.066-.65259.15344-1.29858.2453-1.943C158.399,201.825,158.31128,202.4707,158.24542,203.12329Z"/><path class="c" d="M223.03674,252.8772c-.27936.1062-.55841.21313-.84021.31421C222.47845,253.09033,222.75732,252.9834,223.03674,252.8772Z"/><path class="c" d="M213.66479,255.38354c-.21069.03394-.42151.06763-.63312.09863C213.24335,255.45117,213.454,255.41748,213.66479,255.38354Z"/><path class="c" d="M218.43347,254.3645c-.243.06519-.48584.13062-.73041.19189C217.94769,254.49512,218.19037,254.42944,218.43347,254.3645Z"/><path class="c" d="M215.79144,254.99756c-.16241.03369-.3269.06152-.49.09375C215.46454,255.0592,215.629,255.03125,215.79144,254.99756Z"/><path class="c" d="M224.95087,252.10706c-.28314.12195-.57025.23645-.8562.35315C224.38074,252.34351,224.6676,252.229,224.95087,252.10706Z"/><path class="c" d="M229.19586,250.02478c-.30334.16785-.6109.32874-.91815.49011C228.58508,250.35352,228.89246,250.19263,229.19586,250.02478Z"/><path class="c" d="M158.54633,200.7428c.1134-.74646.24652-1.48621.39392-2.22083C158.793,199.25659,158.65955,199.99634,158.54633,200.7428Z"/><path class="c" d="M159.57145,194.60711a58.049,58.049,0,0,0,72.07368,56.31612,50.00215,50.00215,0,1,0-74.64339-52.92117,49.68744,49.68744,0,0,1,2.86833-9.31384A58.6728,58.6728,0,0,0,159.57145,194.60711Z"/><path class="c" d="M227.41541,250.95654c-.30145.15063-.60242.30212-.90747.44653C226.81311,251.25879,227.11383,251.10718,227.41541,250.95654Z"/><path class="c" d="M210.95709,255.74585c-.08142.0083-.16388.01318-.24542.02124C210.79321,255.759,210.87567,255.75415,210.95709,255.74585Z"/><path class="d" d="M158.49072,201.1803c.02063-.14514.03369-.29285.0556-.4375C158.52435,200.88745,158.51141,201.03516,158.49072,201.1803Z"/><path class="d" d="M208.1933,255.94458c-.72748.03271-1.4577.05542-2.1933.05542C206.73566,256,207.46576,255.97729,208.1933,255.94458Z"/><path class="d" d="M158.96167,198.402c-.00806.03967-.01343.0802-.02142.12C158.94818,198.48218,158.95361,198.44165,158.96167,198.402Z"/><path class="d" d="M158.17041,204.11011c.02643-.32861.04205-.66016.075-.98682C158.2124,203.45,158.19684,203.78149,158.17041,204.11011Z"/><path class="d" d="M158,208q0-1.23578.06207-2.45654Q158.00046,206.764,158,208Z"/><path class="d" d="M210.71167,255.76709c-.643.06262-1.29034.11047-1.94055.14746C209.42133,255.87744,210.06866,255.82983,210.71167,255.76709Z"/><path class="d" d="M226.50793,251.40308q-.77133.36511-1.55707.704Q225.73685,251.76868,226.50793,251.40308Z"/><path class="d" d="M213.03168,255.48218c-.68744.10107-1.37805.19214-2.07458.26367C211.65363,255.67432,212.3443,255.58337,213.03168,255.48218Z"/><path class="d" d="M228.27771,250.51489q-.42856.22522-.8623.44165Q227.84909,250.73975,228.27771,250.51489Z"/><path class="d" d="M222.19653,253.19141c-.57135.20483-1.14667.40112-1.72784.58459Q221.34027,253.50043,222.19653,253.19141Z"/><path class="d" d="M230.61938,249.2063h-.00006q-.70386.42151-1.42346.81848Q229.91492,249.62689,230.61938,249.2063Z"/><path class="d" d="M224.09467,252.46021q-.52606.21423-1.05792.417Q223.56885,252.67487,224.09467,252.46021Z"/><path class="d" d="M219.7652,253.98633q-.66211.19812-1.33173.37817Q219.10336,254.18506,219.7652,253.98633Z"/><path class="d" d="M215.30145,255.09131q-.81363.15967-1.63666.29224Q214.48795,255.25116,215.30145,255.09131Z"/><path class="d" d="M217.70306,254.5564c-.63275.15845-1.26917.308-1.91162.44116C216.43384,254.86426,217.07037,254.71521,217.70306,254.5564Z"/><path class="b" d="M638,334.82709A16.49088,16.49088,0,0,0,626,340h24A16.49088,16.49088,0,0,0,638,334.82709Z"/><path class="d" d="M156.56909,200.44041c-.02282.15068-.03643.30454-.05792.45573-.09569.67126-.18679,1.34417-.25552,2.024-.03433.34027-.05061.68563-.07814,1.02793-.04.49706-.08748.99208-.11285,1.49307Q156.00057,206.71254,156,208a50,50,0,0,0,50,50c.76625,0,1.5269-.02365,2.28469-.05773q.30146-.01373.6019-.03128c.6773-.03853,1.35161-.08837,2.02141-.15361.08494-.00839.17083-.01348.25565-.02213.72556-.07451,1.44494-.16937,2.161-.27466.22043-.0323.44-.06739.6595-.10274q.85745-.13771,1.70485-.30441c.16988-.03357.34122-.06256.51041-.09766.66923-.13873,1.33216-.29449,1.99127-.45954.25476-.06383.50767-.132.76084-.19989q.6979-.18673,1.38721-.39393c.2442-.073.49013-.14242.7328-.21909.60539-.19112,1.20468-.39558,1.79984-.609.29354-.10529.58422-.21667.87522-.3273q.55437-.21057,1.102-.43437c.29786-.12156.59694-.24083.89188-.36786q.81882-.35229,1.62195-.73331c.31776-.15043.63127-.30823.94528-.46514q.45176-.22583.89823-.46005c.32005-.1681.64042-.33569.95641-.51053q.74911-.41447,1.48277-.85258a58.0678,58.0678,0,0,1-71.77506-62.235,49.68744,49.68744,0,0,0-2.86833,9.31384c-.00839.04133-.01405.08354-.02232.125C156.82588,198.89228,156.68722,199.66285,156.56909,200.44041Z"/><path class="c" d="M67,321.6922A22.38314,22.38314,0,0,0,45.07226,339.593a22.23042,22.23042,0,0,1,1.28348-4.1671,26.26049,26.26049,0,0,0-.13366,2.6489c0,.64823.03185,1.28876.07853,1.92519H89.00037A22.37813,22.37813,0,0,0,67,321.6922Z"/><path class="d" d="M46.30061,340c-.04668-.63643-.07853-1.277-.07853-1.92519a26.26049,26.26049,0,0,1,.13366-2.6489,22.23042,22.23042,0,0,0-1.28348,4.1671c-.00621.03054-.01037.06183-.01645.09225-.02073.10417-.03656.21007-.05581.31474Z"/></svg>