<svg xmlns="http://www.w3.org/2000/svg" viewBox="0 0 680 680"><defs><style>.cls-1{fill:#b3b3b3;}.cls-2{fill:#999;}.cls-3{fill:#8c8c8c;}.cls-4{fill:gray;}</style></defs><title>Moon</title><g id="Layer_2" data-name="Layer 2"><g id="Layer_2-2" data-name="Layer 2"><path class="cls-1" d="M340,70V177c91,0,54,103,0,103v66c54,0,44,98,0,98V574c67,0,0,106,0,106,187.78,0,340-152.22,340-340S527.78,0,340,0C410,0,417,70,340,70Z"/><path class="cls-1" d="M340,177V70C263,70,249,177,340,177Z"/><path class="cls-2" d="M340,680V574c-67,0-44-130,0-130V346c-54,0-54-66,0-66V177c-91,0-77-107,0-107V0C152.22,0,0,152.22,0,340S152.22,680,340,680Z"/><path class="cls-2" d="M340,346v98C384,444,394,346,340,346Z"/><path class="cls-2" d="M340,574V680S407,574,340,574Z"/><path class="cls-2" d="M340,0V70C417,70,410,0,340,0Z"/><path class="cls-2" d="M340,177V280C394,280,431,177,340,177Z"/><path class="cls-1" d="M340,574V444C296,444,273,574,340,574Z"/><path class="cls-1" d="M340,346V280C286,280,286,346,340,346Z"/><circle class="cls-2" cx="563" cy="151" r="28"/><path class="cls-3" d="M569.5,176A32.5,32.5,0,0,1,537,143.5a32.86,32.86,0,0,1,.17-3.31A28,28,0,0,0,577.36,175,32.56,32.56,0,0,1,569.5,176Z"/><circle class="cls-2" cx="440.5" cy="282.5" r="32.5"/><path class="cls-3" d="M448,311.52a37.72,37.72,0,0,1-37.72-37.72,38.14,38.14,0,0,1,.19-3.85,32.5,32.5,0,0,0,46.65,40.45A37.79,37.79,0,0,1,448,311.52Z"/><circle class="cls-2" cx="404" cy="102" r="21"/><path class="cls-3" d="M408.88,120.75A24.38,24.38,0,0,1,384.5,96.38a24.64,24.64,0,0,1,.13-2.49A21,21,0,0,0,414.77,120,24.42,24.42,0,0,1,408.88,120.75Z"/><circle class="cls-3" cx="206" cy="208" r="48"/><path class="cls-4" d="M217.14,250.86a55.71,55.71,0,0,1-55.71-55.71,56.33,56.33,0,0,1,.29-5.68,48,48,0,0,0,68.9,59.75A55.81,55.81,0,0,1,217.14,250.86Z"/><circle class="cls-2" cx="507" cy="456" r="21"/><path class="cls-3" d="M511.87,474.75a24.38,24.38,0,0,1-24.37-24.37,24.64,24.64,0,0,1,.13-2.49A21,21,0,0,0,517.77,474,24.42,24.42,0,0,1,511.87,474.75Z"/><circle class="cls-2" cx="638" cy="351" r="16"/><path class="cls-3" d="M641.71,365.29a18.57,18.57,0,0,1-18.57-18.57,18.78,18.78,0,0,1,.1-1.89,16,16,0,0,0,23,19.92A18.6,18.6,0,0,1,641.71,365.29Z"/><circle class="cls-3" cx="240" cy="444" r="29"/><path class="cls-4" d="M246.73,469.89a33.66,33.66,0,0,1-33.66-33.66,34,34,0,0,1,.17-3.43,29,29,0,0,0,41.63,36.1A33.72,33.72,0,0,1,246.73,469.89Z"/><circle class="cls-3" cx="185.5" cy="595.5" r="20.5"/><path class="cls-4" d="M190.26,613.8A23.79,23.79,0,0,1,166.46,590a24.06,24.06,0,0,1,.12-2.43A20.5,20.5,0,0,0,196,613.1,23.84,23.84,0,0,1,190.26,613.8Z"/><circle class="cls-3" cx="67" cy="344" r="22"/><path class="cls-4" d="M72.11,363.64a25.54,25.54,0,0,1-25.54-25.54,25.82,25.82,0,0,1,.13-2.6,22,22,0,0,0,31.58,27.38A25.58,25.58,0,0,1,72.11,363.64Z"/></g></g></svg>