<svg xmlns="http://www.w3.org/2000/svg" viewBox="0 0 453.48415 401.16653"><title>Planet</title><path d="M431.30873,101.039c-2.77612-.38574-8.74756-.52551-20.5437,1.63916q3.63025,6.485,6.791,13.26575C426.3014,108.19521,429.87416,103.44595,431.30873,101.039Z" fill="none"/><path d="M48.38539,272.1072c-21.49,16.54834-25.98242,24.27356-26.88477,26.42273.01465.04028.02393.0813.0376.12158.01538.02368.0332.04468.0481.06848,2.2771.57764,11.259,1.76843,36.77661-4.58142-1.04834-1.991-2.07837-3.99744-3.06763-6.03735Q51.45667,280.1841,48.38539,272.1072Z" fill="none"/><path d="M2.431,304.76626c-.07275-.1731-.13281-.3501-.20239-.52429l.00879.02881a13.25806,13.25806,0,0,0,.60571,1.484l.218.45a10.05649,10.05649,0,0,0,.62329,1.08752c-.07129-.21-.13892-.42041-.19556-.6322A10.01015,10.01015,0,0,1,2.431,304.76626Z" fill="#ffe5b6"/><path d="M21.483,298.5729c.01782.02686.03784.05151.05518.07861-.01367-.04028-.02295-.0813-.0376-.12158Z" fill="#ffe5b6"/><path d="M3.4889,306.66006A9.99551,9.99551,0,0,1,21.483,298.5729l.01758-.043c.90234-2.14917,5.39478-9.87439,26.88477-26.42273q-1.88818-4.93121-3.49951-9.90747A199.59419,199.59419,0,0,1,39.53749,242.23q-1.14258-5.36664-1.98755-10.75208a9.689,9.689,0,0,0-3.83887,2.407C5.52748,262.356-5.05333,286.02077,2.22865,304.242c.06958.17419.12964.3512.20239.52429A10.01015,10.01015,0,0,0,3.4889,306.66006Z" fill="#ffe5b6"/><path d="M449.94007,91.122c-.04883-.11353-.11084-.22351-.16406-.33594.021.05884.03491.11865.05493.17749C449.86585,91.01748,449.90589,91.067,449.94007,91.122Z" fill="#ffe5b6"/><path d="M405.32,93.54531q2.83594,4.48792,5.44507,9.13281c11.79614-2.16467,17.76758-2.0249,20.5437-1.63916a13.068,13.068,0,0,0,.70532-1.32764c-.012-.03467-.01953-.07007-.03125-.10474a10.0191,10.0191,0,0,1-.59009-1.02661l-.26025-.46533a10.02112,10.02112,0,0,1,3.64722-13.47119q.36292-.21515.73682-.39648a10.00392,10.00392,0,0,1,10.94678,1.48682c-9.37109-11.54626-27.63037-16.98242-54.41577-16.16162a9.96521,9.96521,0,0,0-3.75293.86938q3.77417,4.42126,7.29443,9.06323Q400.74159,86.30019,405.32,93.54531Z" fill="#ffe5b6"/><path d="M435.51649,84.247q-.37317.18091-.73682.39648a10.02346,10.02346,0,0,0-3.64722,13.47119l.26025.46533a10.0191,10.0191,0,0,0,.59009,1.02661,9.99371,9.99371,0,0,1,17.84814-8.64307c-.02-.05884-.03394-.11865-.05493-.17749a10.15042,10.15042,0,0,0-.4126-.98474l-.21826-.45a13.16726,13.16726,0,0,0-.8042-1.41492A10.00684,10.00684,0,0,0,435.51649,84.247Z" fill="#ffe5b6"/><path d="M435.84706,188.56716a201.405,201.405,0,0,1-.82617,33.87415A199.39974,199.39974,0,0,0,432.796,163.615,202.48792,202.48792,0,0,1,435.84706,188.56716Z" fill="#9fc6ff"/><path d="M405.2472,178.09621c-35.51709,31.41187-86.70459,64.046-144.1311,91.891S146.36659,317.81289,99.7079,326.24648q-9.4574,1.70947-18.0708,2.73657c57.582,69.22266,156.887,93.10071,241.54639,52.051.15015-.073.29712-.15063.447-.22388A200.17605,200.17605,0,0,0,432.3141,239.91592a280.62037,280.62037,0,0,0-20.2207-68.0459Q408.7975,174.95425,405.2472,178.09621Z" fill="#9fc6ff"/><path d="M44.88587,262.19973q1.61243,4.97516,3.49951,9.90747,3.08862,8.06744,6.90991,15.994c.98926,2.03992,2.01929,4.04639,3.06763,6.03735,9.1145-2.26807,20.31934-5.48926,34.1084-10.0564,41.4856-13.73926,93.32056-35.36206,145.95728-60.88477,52.63672-25.52246,101.71509-52.83057,138.19409-76.89478,5.949-3.92419,11.252-7.55774,15.99951-10.926A280.87584,280.87584,0,0,0,185.41029,6.51333,201.38729,201.38729,0,0,0,148.6808,20.00076c-.15039.07239-.30225.13953-.45264.21252C66.96644,59.6155,24.31361,146.65932,37.54994,231.47793Q38.39,236.86214,39.53749,242.23A199.59419,199.59419,0,0,0,44.88587,262.19973Z" fill="#9fc6ff"/><path d="M435.84706,188.56716a202.48792,202.48792,0,0,0-3.051-24.95215c-.06274-.33728-.12744-.674-.19189-1.01062-.1936-1.01294-.40063-2.02075-.60937-3.02808q-.31238-1.507-.64819-3.00464c-.06909-.309-.14014-.61694-.21069-.92529-.21558-.94434-.42822-1.88965-.65723-2.82849-.53809.62915-1.09131,1.26208-1.64819,1.89587-.20508.2334-.40991.4668-.61743.70081q-.79687.8985-1.61694,1.80261c-.241.26526-.48706.53186-.7312.7981q-2.53235,2.7594-5.29224,5.57422c-.43579.44458-.87061.88879-1.31494,1.33533-.45215.45422-.91138.91016-1.37231,1.36658q-.76208.75476-1.541,1.51343c-.42725.41626-.85352.83228-1.28809,1.25024-.67065.64526-1.354,1.29346-2.042,1.94287-.3064.28906-.60522.57666-.915.86658l-.00586.00549a280.62037,280.62037,0,0,1,20.2207,68.0459l.00781.04565c.05493-.27429.09814-.55237.15186-.827q1.1239-5.74457,1.92578-11.592c.01343-.098.02539-.19617.03857-.29419q.31348-2.3454.57227-4.70642l.0105-.10059A201.405,201.405,0,0,0,435.84706,188.56716Z" fill="#bbdaff"/><path d="M392.6222,135.37661q1.27881-.90729,2.50342-1.78857c.30762-.22144.61108-.44067.91357-.65955.8562-.61951,1.69971-1.233,2.51611-1.833.22632-.16638.44336-.32825.66675-.493q1.02136-.754,2.00073-1.4873c.25659-.19214.5166-.386.769-.57593q1.13086-.85144,2.20459-1.67383c.25952-.19861.51416-.39478.76855-.59082.65088-.50122,1.28955-.99609,1.90967-1.48157.22559-.17664.44653-.35071.66821-.52527q.85474-.6731,1.67017-1.32556c.22144-.17737.44482-.35547.66235-.53052q.921-.74158,1.79224-1.45666c.2085-.1709.41162-.339.61572-.50769q.7522-.62146,1.46875-1.22339.28857-.2428.57227-.48254.71045-.60168,1.38257-1.18164c.18579-.16016.37207-.32068.55371-.47852.44482-.38647.875-.76477,1.29541-1.13733q-3.15417-6.77875-6.791-13.26575Q408.1631,98.03,405.32,93.54531q-4.574-7.23889-9.731-14.04053-3.51892-4.64062-7.29443-9.06323A200.18166,200.18166,0,0,0,223.7638.362c-.16675.01-.332.02576-.49878.03613a201.41979,201.41979,0,0,0-38.16333,6.08c.103.01086.20557.02441.30859.03528A280.87584,280.87584,0,0,1,392.6222,135.37661Z" fill="#bbdaff"/><path d="M437.09291,87.41567a9.99888,9.99888,0,0,0-5.11011,12.19092c.01172.03467.01929.07007.03125.10474a13.068,13.068,0,0,1-.70532,1.32764c-1.43457,2.407-5.00732,7.15625-13.75269,14.90491-.42041.37256-.85059.75085-1.29541,1.13733.44287-.38477.8772-.76489,1.2959-1.13586a199.00412,199.00412,0,0,1,12.92212,36.87256c20.0083-23.38855,27.14893-43.53638,20.70117-59.14929-.15283-.39575-.32324-.78748-.50757-1.168l-.21826-.45a10.11656,10.11656,0,0,0-.51392-.92871c-.03418-.05493-.07422-.10449-.10913-.15845A9.99655,9.99655,0,0,0,437.09291,87.41567Z" fill="#ffe5b6"/><path d="M261.1161,269.98721c57.42651-27.845,108.614-60.47913,144.1311-91.891q3.55261-3.14227,6.84619-6.2262v-.00024a278.36541,278.36541,0,0,0-19.47046-36.49219c.85449-.6062,1.68433-1.20081,2.50269-1.78955q-1.22461.8811-2.50342,1.78857c-4.74756,3.36829-10.05054,7.00183-15.99951,10.926-36.479,24.06421-85.55737,51.37231-138.19409,76.89478-52.63672,25.52271-104.47168,47.14551-145.95728,60.88477-13.78906,4.56714-24.9939,7.78833-34.1084,10.0564-25.51758,6.34985-34.49951,5.15906-36.77661,4.58142-.01489-.0238-.03271-.0448-.0481-.06848-.01733-.0271-.03735-.05176-.05518-.07861A9.99487,9.99487,0,0,0,3.4889,306.66006c.05664.21179.12427.42224.19556.6322a10.03482,10.03482,0,0,0,.46753,1.162l.21826.45c.18433.38037.38623.75684.60254,1.12195,9.73657,17.35266,36.07959,23.8064,76.66431,18.95691q8.61218-1.02905,18.0708-2.73657C146.36659,317.81289,203.68959,297.8323,261.1161,269.98721Z" fill="#ffe5b6"/><path d="M425.86488,158.01528q-2.53088,2.759-5.29224,5.57422Q423.33351,160.7748,425.86488,158.01528Z" fill="#ffe5b6"/><path d="M416.26063,117.0812c-.18164.15784-.36792.31836-.55371.47852q-.67383.58081-1.38257,1.18164-.28308.2395-.57227.48254-.71521.60114-1.46875,1.22339c-.2041.1687-.40723.33679-.61572.50769q-.87158.71521-1.79224,1.45666c-.21753.175-.44092.35315-.66235.53052q-.81628.65277-1.67017,1.32556c-.22168.17456-.44263.34863-.66821.52527-.62012.48547-1.25879.98035-1.90967,1.48157-.25439.196-.509.39221-.76855.59082q-1.07556.82324-2.20459,1.67383c-.25244.18994-.51245.38379-.769.57593q-.98.73315-2.00073,1.4873c-.22339.16479-.44043.32666-.66675.493-.81641.6-1.65991,1.2135-2.51611,1.833-.30249.21887-.606.43811-.91357.65955-.81836.58875-1.64819,1.18335-2.50269,1.78955a278.36541,278.36541,0,0,1,19.47046,36.49219V171.87l.00586-.00549c.30981-.28992.60864-.57751.915-.86658.688-.64941,1.37134-1.29761,2.042-1.94287.43457-.418.86084-.834,1.28809-1.25024q.7782-.75861,1.541-1.51343c.46094-.45642.92017-.91235,1.37231-1.36658.44434-.44653.87915-.89075,1.31494-1.33533q2.75867-2.81433,5.29224-5.57422c.24414-.26624.49023-.53284.7312-.7981q.82141-.90454,1.61694-1.80261c.20752-.234.41235-.46741.61743-.70081.55688-.63379,1.11011-1.26672,1.64819-1.89587a199.00412,199.00412,0,0,0-12.92212-36.87256C417.13783,116.31631,416.7035,116.69643,416.26063,117.0812Z" fill="#ffedcf"/></svg>