<svg xmlns="http://www.w3.org/2000/svg" viewBox="0 0 146.9 411"><defs><style>.cls-1{fill:#fff;}.cls-2{fill:#e5e5e5;}.cls-3{fill:none;stroke:#ff0;stroke-linecap:round;stroke-linejoin:round;stroke-width:0;}.cls-4{fill:#ccc;}.cls-5{fill:#ff6969;}.cls-6{fill:#f26666;}.cls-7{fill:#ff9c7d;}.cls-8{fill:#f28d79;}.cls-9{fill:#72ddf7;}.cls-10{fill:#6ccae0;}</style></defs><title>Rocket</title><g id="Layer_2" data-name="Layer 2"><g id="Layer_2-2" data-name="Layer 2"><path class="cls-1" d="M26.45,300h47V0S-53.55,99,26.45,300Z"/><path class="cls-2" d="M73.45,0V300h47C200.45,99,73.45,0,73.45,0Z"/><line class="cls-3" x1="73.45" x2="73.45" y2="300"/><rect class="cls-4" x="73.45" y="300" width="43" height="5"/><rect class="cls-2" x="30.45" y="300" width="43" height="5"/><line class="cls-3" x1="73.45" y1="300" x2="73.45" y2="305"/><path class="cls-5" d="M73.45,305h-28s-3,75,28,106Z"/><path class="cls-6" d="M73.45,305h28s3,75-28,106Z"/><path class="cls-7" d="M73.45,305H57s-1.77,44.18,16.49,62.44Z"/><path class="cls-8" d="M73.45,305H89.94s1.77,44.18-16.49,62.44Z"/><path class="cls-2" d="M40.45,150a33,33,0,0,0,33,33V117A33,33,0,0,0,40.45,150Z"/><path class="cls-4" d="M73.45,117v66a33,33,0,0,0,0-66Z"/><path class="cls-9" d="M48.45,150a25,25,0,0,0,25,25V125A25,25,0,0,0,48.45,150Z"/><path class="cls-10" d="M73.45,125v50a25,25,0,0,0,0-50Z"/></g></g></svg>