<svg xmlns="http://www.w3.org/2000/svg" viewBox="0 0 349 264"><defs><style>.cls-1{fill:#e5e5e5;}.cls-2{fill:#fff;}.cls-3{fill:#d6d6d6;}.cls-4{fill:#ccc;}</style></defs><title>Satellite</title><g id="Layer_2" data-name="Layer 2"><g id="Layer_2-2" data-name="Layer 2"><rect class="cls-1" y="81" width="130" height="50"/><path class="cls-2" d="M130,22h0V192.24A56.88,56.88,0,0,0,174,213V0A56.88,56.88,0,0,0,130,22Z"/><path class="cls-1" d="M175,0l-1,0V213a56.89,56.89,0,0,0,45-22h0V20.76A56.88,56.88,0,0,0,175,0Z"/><rect class="cls-3" x="219" y="82" width="130" height="50"/><rect class="cls-3" x="5" y="86" width="20" height="20"/><rect class="cls-3" x="25" y="106" width="20" height="20"/><rect class="cls-3" x="45" y="86" width="20" height="20"/><rect class="cls-3" x="65" y="106" width="20" height="20"/><rect class="cls-3" x="85" y="86" width="20" height="20"/><rect class="cls-3" x="105" y="106" width="20" height="20"/><rect class="cls-4" x="224" y="87" width="20" height="20"/><rect class="cls-4" x="244" y="107" width="20" height="20"/><rect class="cls-4" x="264" y="87" width="20" height="20"/><rect class="cls-4" x="284" y="107" width="20" height="20"/><rect class="cls-4" x="304" y="87" width="20" height="20"/><rect class="cls-4" x="324" y="107" width="20" height="20"/><path class="cls-1" d="M225,264a51,51,0,0,0-51-51v51Z"/><path class="cls-2" d="M174,264V213a51,51,0,0,0-51,51Z"/></g></g></svg>