<svg xmlns="http://www.w3.org/2000/svg" viewBox="0 0 1920 1080"><defs><style>.cls-1{fill:#2c2a4a;}.cls-2{fill:#fdffbd;}</style></defs><title>Artboard 1</title><g id="Layer_1" data-name="Layer 1"><rect class="cls-1" x="-29.48" y="-22.48" width="1969.97" height="1117.97"/><path d="M1940-22V1095H-29V-22H1940m1-1H-30V1096H1941V-23Z"/></g><g id="Layer_2" data-name="Layer 2"><circle class="cls-2" cx="514.5" cy="307.5" r="4.5"/><circle class="cls-2" cx="1150.5" cy="588.5" r="4.5"/><circle class="cls-2" cx="545" cy="668" r="11"/><circle class="cls-2" cx="777.5" cy="247.5" r="4.5"/><circle class="cls-2" cx="1510.5" cy="247.5" r="4.5"/><circle class="cls-2" cx="1589" cy="741" r="9"/><circle class="cls-2" cx="324.5" cy="99.5" r="4.5"/><circle class="cls-2" cx="1259.5" cy="166.5" r="4.5"/><circle class="cls-2" cx="1417" cy="440" r="13"/><circle class="cls-2" cx="227.5" cy="593.5" r="4.5"/><circle class="cls-2" cx="395.5" cy="964.5" r="4.5"/><circle class="cls-2" cx="1790.5" cy="981.5" r="4.5"/><circle class="cls-2" cx="1743" cy="100" r="10"/><circle class="cls-2" cx="105.5" cy="906.5" r="14.5"/><circle class="cls-2" cx="1465.5" cy="965.5" r="4.5"/></g></svg>