<svg xmlns="http://www.w3.org/2000/svg" viewBox="0 0 49.425 49.738"><title>Asset 1</title><path d="M26.577,22.434v-.077c-.016.026-.033.052-.05.077Z"/><path d="M45.771,0H3.651A3.60856,3.60856,0,0,0,0,3.563V46.176a3.60837,3.60837,0,0,0,3.651,3.562h42.12a3.60971,3.60971,0,0,0,3.654-3.562V3.563A3.60926,3.60926,0,0,0,45.771,0ZM14.981,41.637H7.516V19.178h7.465ZM11.249,16.11h-.05a3.89062,3.89062,0,1,1,.099-7.76,3.89223,3.89223,0,1,1-.049,7.76ZM41.9,41.637H34.435V29.619c0-3.018-1.08-5.078-3.781-5.078a4.08863,4.08863,0,0,0-3.831,2.731,5.11135,5.11135,0,0,0-.245,1.821V41.636H19.113s.098-20.354,0-22.459h7.465v3.179a7.4122,7.4122,0,0,1,6.729-3.709c4.911,0,8.594,3.211,8.594,10.11v12.88Z" fill="#f7fff7"/></svg>